<?xml version="1.0" standalone="no"?>
<!DOCTYPE svg PUBLIC "-//W3C//DTD SVG 20010904//EN"
 "http://www.w3.org/TR/2001/REC-SVG-20010904/DTD/svg10.dtd">
<svg version="1.0" xmlns="http://www.w3.org/2000/svg"
 width="800.000000pt" height="600.000000pt" viewBox="0 0 800.000000 600.000000"
 preserveAspectRatio="xMidYMid meet">

<g transform="translate(0.000000,600.000000) scale(0.100000,-0.100000)"
fill="#000000" stroke="none">
<path d="M5212 4583 l-32 -36 22 -15 c46 -31 115 -114 143 -171 l28 -60 44 22
c40 20 43 25 38 52 -9 48 -66 133 -128 191 -32 30 -64 54 -70 53 -7 0 -27 -16
-45 -36z"/>
<path d="M5070 4500 c-14 -4 -40 -8 -59 -9 l-34 -1 59 -38 c101 -66 173 -159
209 -269 l17 -53 30 62 31 62 -33 65 c-38 74 -148 192 -177 190 -10 -1 -29 -5
-43 -9z"/>
<path d="M3280 4203 c-30 -1 -87 -5 -126 -9 l-71 -5 15 -56 16 -55 115 7 c194
10 211 13 211 40 0 12 3 37 6 54 l7 31 -59 -2 c-33 -1 -84 -3 -114 -5z"/>
<path d="M3360 3994 c-14 -2 -78 -6 -142 -9 l-117 -7 -12 -36 c-6 -21 -18 -47
-25 -60 l-15 -22 68 5 c37 3 142 10 232 15 90 5 165 11 166 12 2 2 -11 27 -27
56 -32 55 -36 57 -128 46z"/>
<path d="M5273 3343 c-12 -32 -21 -58 -20 -58 1 -1 62 -38 135 -83 73 -45 136
-82 140 -82 4 0 24 20 45 44 l36 44 -155 96 c-85 53 -156 96 -157 96 -1 0 -12
-26 -24 -57z"/>
<path d="M2392 3231 c-67 -77 -122 -142 -122 -145 0 -3 5 -6 11 -6 5 0 27 -11
47 -25 20 -14 40 -25 43 -25 4 0 55 54 113 120 l106 120 -36 48 c-20 26 -37
48 -38 49 -2 2 -57 -60 -124 -136z"/>
<path d="M3785 3221 c-311 -65 -571 -261 -715 -542 -231 -450 -105 -1002 298
-1307 202 -152 485 -232 723 -203 257 30 441 115 620 288 145 140 237 296 291
496 32 116 32 384 0 499 -103 374 -369 647 -737 754 -124 36 -346 43 -480 15z
m243 -127 c13 -4 21 -12 19 -18 -6 -18 -88 -45 -142 -46 -61 0 -120 -31 -152
-79 -28 -42 -29 -70 -2 -115 30 -51 96 -80 162 -72 86 10 152 78 145 149 -4
38 -3 39 26 33 49 -10 128 -51 172 -89 23 -20 58 -68 79 -108 32 -61 38 -83
43 -155 4 -70 1 -95 -21 -166 -72 -231 -257 -397 -493 -444 -138 -27 -303 -3
-403 60 -78 50 -151 155 -166 242 -11 57 -15 62 -85 103 -89 51 -90 55 -56
157 90 265 329 480 598 539 65 14 236 19 276 9z m-786 -966 c-2 -62 -6 -115
-7 -117 -2 -2 -16 0 -30 3 -57 14 -81 66 -92 193 -9 108 -5 112 70 70 l62 -36
-3 -113z"/>
<path d="M3445 2768 c-111 -61 -140 -211 -53 -272 28 -20 100 -21 137 -1 70
36 110 123 91 196 -17 63 -49 89 -107 89 -26 0 -57 -6 -68 -12z"/>
<path d="M3887 2537 c-83 -20 -140 -114 -117 -194 20 -72 86 -123 158 -123
144 0 213 166 114 271 -43 44 -96 60 -155 46z"/>
<path d="M2557 3079 l-115 -131 24 -48 c13 -26 24 -53 24 -59 0 -6 3 -11 8
-10 7 0 263 291 290 329 12 17 9 20 -41 34 -30 9 -60 16 -65 16 -6 0 -62 -59
-125 -131z"/>
<path d="M5175 3200 c-4 -6 -28 -23 -55 -38 l-48 -28 196 -121 197 -122 6 32
c20 102 22 93 -29 125 -26 16 -95 59 -154 95 -61 38 -110 62 -113 57z"/>
</g>
</svg>
